<?xml version="1.0" encoding="UTF-8"?><svg id="Layer_2" xmlns="http://www.w3.org/2000/svg" viewBox="0 0 839.38 238.15"><g id="Layer_2-2"><g id="Layer_1-2"><g><g><path style="fill:#fff;" d="M112.63,76.47h32.24v61.87c-8.28,6.24-17.86,11.04-28.76,14.38-10.89,3.34-21.86,5.01-32.9,5.01-15.83,0-30.06-3.38-42.7-10.13-12.63-6.75-22.55-16.12-29.74-28.11C3.6,107.51,0,93.97,0,78.86s3.6-28.65,10.78-40.63c7.19-11.98,17.17-21.35,29.95-28.1C53.52,3.38,67.9,0,83.88,0,97.24,0,109.37,2.25,120.26,6.75s20.04,11.04,27.45,19.61l-22.66,20.91c-10.89-11.47-24.04-17.21-39.43-17.21-9.73,0-18.37,2.04-25.92,6.1-7.56,4.07-13.44,9.8-17.65,17.21-4.21,7.41-6.32,15.9-6.32,25.49s2.1,17.86,6.32,25.27c4.21,7.4,10.06,13.18,17.54,17.31,7.48,4.14,16.01,6.21,25.6,6.21,10.16,0,19.31-2.18,27.45-6.53v-44.66h0Z"/><path style="fill:#fff;" d="M277.98,122.43h-70.8l-13.51,32.68h-36.17L225.48,2.61h34.86l68.19,152.5h-37.04l-13.51-32.68Zm-11.11-26.8l-24.18-58.38-24.18,58.38h48.36Z"/><path style="fill:#fff;" d="M484.29,2.61V155.11h-28.98l-76.02-92.59v92.59h-34.86V2.61h29.19l75.81,92.59V2.61h34.86Z"/><path style="fill:#fff;" d="M623.49,76.47h32.25v61.87c-8.28,6.24-17.87,11.04-28.76,14.38-10.89,3.34-21.86,5.01-32.9,5.01-15.83,0-30.06-3.38-42.7-10.13s-22.55-16.12-29.74-28.11c-7.19-11.98-10.78-25.52-10.78-40.63s3.59-28.65,10.78-40.63,17.17-21.35,29.96-28.1c12.78-6.75,27.15-10.13,43.13-10.13,13.36,0,25.49,2.25,36.38,6.75,10.9,4.5,20.05,11.04,27.45,19.61l-22.66,20.91c-10.89-11.47-24.04-17.21-39.43-17.21-9.73,0-18.38,2.04-25.92,6.1-7.55,4.07-13.44,9.8-17.65,17.21s-6.32,15.9-6.32,25.49,2.1,17.86,6.32,25.27c4.21,7.4,10.06,13.18,17.54,17.31,7.47,4.14,16.01,6.21,25.59,6.21,10.17,0,19.32-2.18,27.45-6.53v-44.66h0Z"/><path style="fill:#fff;" d="M788.84,122.43h-70.8l-13.51,32.68h-36.16L736.34,2.61h34.85l68.19,152.5h-37.04l-13.51-32.68h.01Zm-11.11-26.8l-24.18-58.38-24.18,58.38h48.36Z"/></g><g><path style="fill:#fff;" d="M256.95,226.62c-.54,.06-1.14,.06-1.74,.06h-9.02v11.47h-6.42v-38.06h15.44c9.74,0,15.34,4.73,15.34,12.99,0,6.09-2.83,10.39-7.89,12.35l8.54,12.72h-7.29l-6.96-11.53h0Zm-1.74-5.71c5.88,0,9.25-2.5,9.25-7.66s-3.37-7.4-9.25-7.4h-9.02v15.06h9.02Z"/><path style="fill:#fff;" d="M316.42,205.85v10.28h18.6v5.76h-18.6v10.5h21.42v5.76h-27.84v-38.06h27.19v5.76h-20.77Z"/><path style="fill:#fff;" d="M381.99,229.55l-3.65,8.59h-6.69l16.81-38.06h6.58l16.63,38.06h-6.85l-3.64-8.59h-19.19Zm9.57-22.62l-7.18,16.91h14.35l-7.17-16.91Z"/><path style="fill:#fff;" d="M470.54,232.33v5.82h-22.89v-38.06h6.42v32.24h16.47Z"/><path style="fill:#fff;" d="M521.54,205.85v32.3h-6.41v-32.3h-12.02v-5.76h30.5v5.76h-12.07Z"/><path style="fill:#fff;" d="M585.65,238.14h-6.36v-12.45l-14.2-25.61h6.47l10.88,18.54,10.66-18.54h6.52l-13.97,25.39v12.67h0Z"/></g></g></g></g></svg>